<mxfile host="Electron" agent="Mozilla/5.0 (Windows NT 10.0; Win64; x64) AppleWebKit/537.36 (KHTML, like Gecko) draw.io/25.0.2 Chrome/128.0.6613.186 Electron/32.2.5 Safari/537.36" version="25.0.2">
  <diagram name="Page-1" id="zSRr4HgumvD6iT_EKdTx">
    <mxGraphModel dx="478" dy="319" grid="1" gridSize="10" guides="1" tooltips="1" connect="1" arrows="1" fold="1" page="1" pageScale="1" pageWidth="827" pageHeight="1169" math="1" shadow="0">
      <root>
        <mxCell id="0" />
        <mxCell id="1" parent="0" />
        <mxCell id="IwurHtCtulRV3gGwHplq-33" value="&lt;div style=&quot;line-height: 100%;&quot;&gt;else wait&lt;/div&gt;" style="rounded=1;whiteSpace=wrap;html=1;arcSize=10;fontFamily=Roboto Condensed;fontSource=https%3A%2F%2Ffonts.googleapis.com%2Fcss%3Ffamily%3DRoboto%2BCondensed;fontSize=10;fillColor=default;fontColor=#333333;strokeColor=#666666;verticalAlign=bottom;spacingBottom=0;" parent="1" vertex="1">
          <mxGeometry x="170" y="365" width="50" height="25" as="geometry" />
        </mxCell>
        <mxCell id="IwurHtCtulRV3gGwHplq-17" value="" style="rounded=1;whiteSpace=wrap;html=1;arcSize=10;fontFamily=Roboto;fontSource=https%3A%2F%2Ffonts.googleapis.com%2Fcss%3Ffamily%3DRoboto;fillColor=default;strokeColor=#6c8ebf;dashed=1;linejoin=round;linecap=round;strokeWidth=1;dashPattern=8 8;" parent="1" vertex="1">
          <mxGeometry x="305" y="115" width="60" height="130" as="geometry" />
        </mxCell>
        <mxCell id="IwurHtCtulRV3gGwHplq-10" value="Start" style="edgeStyle=none;shape=connector;rounded=0;orthogonalLoop=1;jettySize=auto;html=1;strokeColor=#b85450;strokeWidth=1.5;align=right;verticalAlign=middle;spacingLeft=2;fontFamily=Roboto Condensed;fontSource=https%3A%2F%2Ffonts.googleapis.com%2Fcss%3Ffamily%3DRoboto%2BCondensed;fontSize=9;fontColor=#295200;labelBackgroundColor=default;endArrow=block;endFill=1;endSize=4;sourcePerimeterSpacing=2;targetPerimeterSpacing=1;fillColor=#f8cecc;linejoin=round;linecap=round;spacingRight=2;fontStyle=0" parent="1" source="IwurHtCtulRV3gGwHplq-1" target="IwurHtCtulRV3gGwHplq-2" edge="1">
          <mxGeometry x="0.0001" relative="1" as="geometry">
            <mxPoint as="offset" />
          </mxGeometry>
        </mxCell>
        <mxCell id="IwurHtCtulRV3gGwHplq-1" value="new" style="rounded=1;whiteSpace=wrap;html=1;arcSize=10;fontFamily=Roboto;fontSource=https%3A%2F%2Ffonts.googleapis.com%2Fcss%3Ffamily%3DRoboto;fontSize=11;fillColor=default;fontColor=#333333;strokeColor=#666666;" parent="1" vertex="1">
          <mxGeometry x="200" y="120" width="50" height="30" as="geometry" />
        </mxCell>
        <mxCell id="IwurHtCtulRV3gGwHplq-2" value="ready" style="rounded=1;whiteSpace=wrap;html=1;arcSize=10;fontFamily=Roboto;fontSource=https%3A%2F%2Ffonts.googleapis.com%2Fcss%3Ffamily%3DRoboto;fontSize=11;fillColor=default;fontColor=#333333;strokeColor=#666666;" parent="1" vertex="1">
          <mxGeometry x="200" y="250" width="50" height="30" as="geometry" />
        </mxCell>
        <mxCell id="IwurHtCtulRV3gGwHplq-11" value="woke up&lt;div&gt;joins&lt;/div&gt;&lt;div&gt;I/O finished&lt;/div&gt;" style="edgeStyle=none;shape=connector;rounded=0;orthogonalLoop=1;jettySize=auto;html=1;strokeColor=#b85450;strokeWidth=1.5;align=right;verticalAlign=middle;spacingLeft=2;fontFamily=Roboto Condensed;fontSource=https%3A%2F%2Ffonts.googleapis.com%2Fcss%3Ffamily%3DRoboto%2BCondensed;fontSize=9;fontColor=#295200;labelBackgroundColor=none;endArrow=block;endFill=1;endSize=4;sourcePerimeterSpacing=2;targetPerimeterSpacing=1;fillColor=#f8cecc;linejoin=round;linecap=round;fontStyle=0;spacingRight=2;" parent="1" target="IwurHtCtulRV3gGwHplq-2" edge="1">
          <mxGeometry x="-0.6958" y="-10" relative="1" as="geometry">
            <mxPoint x="309" y="151" as="sourcePoint" />
            <mxPoint as="offset" />
          </mxGeometry>
        </mxCell>
        <mxCell id="IwurHtCtulRV3gGwHplq-3" value="blocked" style="rounded=1;whiteSpace=wrap;html=1;arcSize=10;fontFamily=Roboto;fontSource=https%3A%2F%2Ffonts.googleapis.com%2Fcss%3Ffamily%3DRoboto;fontSize=11;fillColor=default;fontColor=#333333;strokeColor=#666666;" parent="1" vertex="1">
          <mxGeometry x="310" y="120" width="50" height="30" as="geometry" />
        </mxCell>
        <mxCell id="IwurHtCtulRV3gGwHplq-12" value="Lock&lt;div&gt;gained&lt;/div&gt;" style="edgeStyle=none;shape=connector;rounded=0;orthogonalLoop=1;jettySize=auto;html=1;strokeColor=#b85450;strokeWidth=1.5;align=center;verticalAlign=middle;spacingLeft=2;fontFamily=Roboto Condensed;fontSource=https%3A%2F%2Ffonts.googleapis.com%2Fcss%3Ffamily%3DRoboto%2BCondensed;fontSize=9;fontColor=#295200;labelBackgroundColor=none;endArrow=block;endFill=1;endSize=4;sourcePerimeterSpacing=2;targetPerimeterSpacing=1;fillColor=#f8cecc;entryX=1;entryY=0;entryDx=0;entryDy=0;linejoin=round;linecap=round;fontStyle=0" parent="1" target="IwurHtCtulRV3gGwHplq-2" edge="1">
          <mxGeometry x="0.0711" y="13" relative="1" as="geometry">
            <mxPoint x="308" y="182" as="sourcePoint" />
            <mxPoint as="offset" />
          </mxGeometry>
        </mxCell>
        <mxCell id="IwurHtCtulRV3gGwHplq-4" value="Objects lock-pool" style="rounded=1;whiteSpace=wrap;html=1;arcSize=10;fontFamily=Roboto Condensed;fontSource=https%3A%2F%2Ffonts.googleapis.com%2Fcss%3Ffamily%3DRoboto%2BCondensed;linejoin=round;linecap=round;fontSize=11;fillColor=default;fontColor=#333333;strokeColor=#666666;" parent="1" vertex="1">
          <mxGeometry x="310" y="160" width="50" height="30" as="geometry" />
        </mxCell>
        <mxCell id="IwurHtCtulRV3gGwHplq-14" value="Wait" style="edgeStyle=none;shape=connector;rounded=0;orthogonalLoop=1;jettySize=auto;html=1;strokeColor=#b85450;strokeWidth=1.5;align=center;verticalAlign=middle;spacingLeft=2;fontFamily=Roboto Condensed;fontSource=https%3A%2F%2Ffonts.googleapis.com%2Fcss%3Ffamily%3DRoboto%2BCondensed;fontSize=9;fontColor=#295200;labelBackgroundColor=default;endArrow=block;endFill=1;endSize=4;sourcePerimeterSpacing=2;targetPerimeterSpacing=1;fillColor=#f8cecc;linejoin=round;linecap=round;fontStyle=0" parent="1" source="IwurHtCtulRV3gGwHplq-5" target="IwurHtCtulRV3gGwHplq-8" edge="1">
          <mxGeometry relative="1" as="geometry" />
        </mxCell>
        <mxCell id="IwurHtCtulRV3gGwHplq-15" value="lock" style="edgeStyle=none;shape=connector;rounded=0;orthogonalLoop=1;jettySize=auto;html=1;strokeColor=#b85450;strokeWidth=1.5;align=center;verticalAlign=middle;spacingLeft=2;fontFamily=Roboto Condensed;fontSource=https%3A%2F%2Ffonts.googleapis.com%2Fcss%3Ffamily%3DRoboto%2BCondensed;fontSize=9;fontColor=#295200;labelBackgroundColor=default;endArrow=block;endFill=1;endSize=4;sourcePerimeterSpacing=2;targetPerimeterSpacing=1;fillColor=#f8cecc;linejoin=round;linecap=round;fontStyle=0" parent="1" edge="1">
          <mxGeometry relative="1" as="geometry">
            <mxPoint x="419" y="249" as="sourcePoint" />
            <mxPoint x="362" y="182" as="targetPoint" />
          </mxGeometry>
        </mxCell>
        <mxCell id="IwurHtCtulRV3gGwHplq-16" value="Sleep&lt;div&gt;Join&lt;/div&gt;&lt;div&gt;IO Operations&lt;/div&gt;" style="edgeStyle=none;shape=connector;rounded=0;orthogonalLoop=1;jettySize=auto;html=1;strokeColor=#b85450;strokeWidth=1.5;align=left;verticalAlign=middle;spacingLeft=2;fontFamily=Roboto Condensed;fontSource=https%3A%2F%2Ffonts.googleapis.com%2Fcss%3Ffamily%3DRoboto%2BCondensed;fontSize=9;fontColor=#295200;labelBackgroundColor=default;endArrow=block;endFill=1;endSize=4;sourcePerimeterSpacing=2;targetPerimeterSpacing=1;fillColor=#f8cecc;entryX=1;entryY=1;entryDx=0;entryDy=0;linejoin=round;linecap=round;fontStyle=0" parent="1" source="IwurHtCtulRV3gGwHplq-5" target="IwurHtCtulRV3gGwHplq-3" edge="1">
          <mxGeometry x="0.6729" y="-10" relative="1" as="geometry">
            <mxPoint as="offset" />
          </mxGeometry>
        </mxCell>
        <mxCell id="IwurHtCtulRV3gGwHplq-5" value="running" style="rounded=1;whiteSpace=wrap;html=1;arcSize=10;fontFamily=Roboto;fontSource=https%3A%2F%2Ffonts.googleapis.com%2Fcss%3Ffamily%3DRoboto;fontSize=11;fillColor=default;fontColor=#333333;strokeColor=#666666;" parent="1" vertex="1">
          <mxGeometry x="420" y="250" width="50" height="30" as="geometry" />
        </mxCell>
        <mxCell id="IwurHtCtulRV3gGwHplq-7" value="Thread&lt;div&gt;terminates&lt;/div&gt;" style="rounded=0;orthogonalLoop=1;jettySize=auto;html=1;linecap=round;linejoin=round;endArrow=block;endFill=1;fillColor=#f8cecc;strokeColor=#b85450;strokeWidth=1.5;endSize=4;sourcePerimeterSpacing=2;fontFamily=Roboto Condensed;fontSource=https%3A%2F%2Ffonts.googleapis.com%2Fcss%3Ffamily%3DRoboto%2BCondensed;fontSize=9;align=left;spacingLeft=2;targetPerimeterSpacing=1;fontStyle=0;fontColor=#295200;" parent="1" source="IwurHtCtulRV3gGwHplq-5" target="IwurHtCtulRV3gGwHplq-6" edge="1">
          <mxGeometry relative="1" as="geometry" />
        </mxCell>
        <mxCell id="IwurHtCtulRV3gGwHplq-6" value="stopped" style="rounded=1;whiteSpace=wrap;html=1;arcSize=10;fontFamily=Roboto;fontSource=https%3A%2F%2Ffonts.googleapis.com%2Fcss%3Ffamily%3DRoboto;fontSize=11;fillColor=default;fontColor=#333333;strokeColor=#666666;" parent="1" vertex="1">
          <mxGeometry x="420" y="120" width="50" height="30" as="geometry" />
        </mxCell>
        <mxCell id="IwurHtCtulRV3gGwHplq-13" value="Pulse" style="edgeStyle=none;shape=connector;rounded=0;orthogonalLoop=1;jettySize=auto;html=1;strokeColor=#b85450;strokeWidth=1.5;align=left;verticalAlign=middle;spacingLeft=2;fontFamily=Roboto Condensed;fontSource=https%3A%2F%2Ffonts.googleapis.com%2Fcss%3Ffamily%3DRoboto%2BCondensed;fontSize=9;fontColor=#295200;labelBackgroundColor=default;endArrow=block;endFill=1;endSize=4;sourcePerimeterSpacing=2;targetPerimeterSpacing=1;fillColor=#f8cecc;linejoin=round;linecap=round;fontStyle=0" parent="1" source="IwurHtCtulRV3gGwHplq-8" target="IwurHtCtulRV3gGwHplq-4" edge="1">
          <mxGeometry relative="1" as="geometry" />
        </mxCell>
        <mxCell id="IwurHtCtulRV3gGwHplq-8" value="Objects wait-pool" style="rounded=1;whiteSpace=wrap;html=1;arcSize=10;fontFamily=Roboto Condensed;fontSource=https%3A%2F%2Ffonts.googleapis.com%2Fcss%3Ffamily%3DRoboto%2BCondensed;linejoin=round;linecap=round;fontSize=11;fillColor=default;fontColor=#333333;strokeColor=#666666;" parent="1" vertex="1">
          <mxGeometry x="310" y="210" width="50" height="30" as="geometry" />
        </mxCell>
        <mxCell id="IwurHtCtulRV3gGwHplq-9" value="scheduler" style="rounded=0;orthogonalLoop=1;jettySize=auto;html=1;linecap=round;linejoin=round;endArrow=block;endFill=1;fillColor=#f8cecc;strokeColor=#b85450;strokeWidth=1.5;endSize=4;sourcePerimeterSpacing=2;fontFamily=Roboto Condensed;fontSource=https%3A%2F%2Ffonts.googleapis.com%2Fcss%3Ffamily%3DRoboto%2BCondensed;fontSize=9;align=center;spacingLeft=0;targetPerimeterSpacing=1;verticalAlign=top;spacingBottom=0;spacingTop=-4;startSize=4;startArrow=block;startFill=1;fontStyle=0;fontColor=#295200;" parent="1" source="IwurHtCtulRV3gGwHplq-2" target="IwurHtCtulRV3gGwHplq-5" edge="1">
          <mxGeometry relative="1" as="geometry">
            <mxPoint x="395" y="258" as="sourcePoint" />
            <mxPoint x="395" y="201" as="targetPoint" />
          </mxGeometry>
        </mxCell>
        <mxCell id="IwurHtCtulRV3gGwHplq-18" value="" style="rounded=1;orthogonalLoop=1;jettySize=auto;html=1;linecap=round;linejoin=round;endArrow=block;endFill=1;fillColor=#f8cecc;strokeColor=#b85450;strokeWidth=1.5;endSize=4;sourcePerimeterSpacing=0;fontFamily=Roboto Condensed;fontSource=https%3A%2F%2Ffonts.googleapis.com%2Fcss%3Ffamily%3DRoboto%2BCondensed;fontSize=9;align=center;spacingLeft=0;targetPerimeterSpacing=0;verticalAlign=top;spacingBottom=0;spacingTop=-4;startSize=4;startArrow=none;startFill=0;fontStyle=0;fontColor=#295200;edgeStyle=entityRelationEdgeStyle;arcSize=10;curved=0;segment=15;" parent="1" source="IwurHtCtulRV3gGwHplq-29" target="IwurHtCtulRV3gGwHplq-27" edge="1">
          <mxGeometry relative="1" as="geometry">
            <mxPoint x="200" y="360" as="sourcePoint" />
            <mxPoint x="260" y="340" as="targetPoint" />
          </mxGeometry>
        </mxCell>
        <mxCell id="IwurHtCtulRV3gGwHplq-19" value="" style="rounded=1;orthogonalLoop=1;jettySize=auto;html=1;linecap=round;linejoin=round;endArrow=block;endFill=1;fillColor=#f8cecc;strokeColor=#b85450;strokeWidth=1.5;endSize=4;sourcePerimeterSpacing=0;fontFamily=Roboto Condensed;fontSource=https%3A%2F%2Ffonts.googleapis.com%2Fcss%3Ffamily%3DRoboto%2BCondensed;fontSize=9;align=center;spacingLeft=0;targetPerimeterSpacing=0;verticalAlign=top;spacingBottom=0;spacingTop=-4;startSize=4;startArrow=none;startFill=0;fontStyle=0;fontColor=#295200;edgeStyle=entityRelationEdgeStyle;arcSize=10;curved=0;segment=15;" parent="1" source="IwurHtCtulRV3gGwHplq-29" target="IwurHtCtulRV3gGwHplq-32" edge="1">
          <mxGeometry relative="1" as="geometry">
            <mxPoint x="200" y="360" as="sourcePoint" />
            <mxPoint x="260" y="380" as="targetPoint" />
          </mxGeometry>
        </mxCell>
        <mxCell id="IwurHtCtulRV3gGwHplq-20" value="" style="rounded=1;orthogonalLoop=1;jettySize=auto;html=1;linecap=round;linejoin=round;endArrow=block;endFill=1;fillColor=#f8cecc;strokeColor=#b85450;strokeWidth=1.5;endSize=4;sourcePerimeterSpacing=0;fontFamily=Roboto Condensed;fontSource=https%3A%2F%2Ffonts.googleapis.com%2Fcss%3Ffamily%3DRoboto%2BCondensed;fontSize=9;align=center;spacingLeft=0;targetPerimeterSpacing=0;verticalAlign=top;spacingBottom=0;spacingTop=-4;startSize=4;startArrow=none;startFill=0;fontStyle=0;fontColor=#295200;edgeStyle=entityRelationEdgeStyle;arcSize=10;curved=0;segment=15;" parent="1" source="IwurHtCtulRV3gGwHplq-29" target="IwurHtCtulRV3gGwHplq-31" edge="1">
          <mxGeometry relative="1" as="geometry">
            <mxPoint x="200" y="360" as="sourcePoint" />
            <mxPoint x="260" y="360" as="targetPoint" />
          </mxGeometry>
        </mxCell>
        <mxCell id="IwurHtCtulRV3gGwHplq-24" value="" style="rounded=1;orthogonalLoop=1;jettySize=auto;html=1;linecap=round;linejoin=round;endArrow=block;endFill=1;fillColor=#f8cecc;strokeColor=#b85450;strokeWidth=1.5;endSize=4;sourcePerimeterSpacing=0;fontFamily=Roboto Condensed;fontSource=https%3A%2F%2Ffonts.googleapis.com%2Fcss%3Ffamily%3DRoboto%2BCondensed;fontSize=9;align=center;spacingLeft=0;targetPerimeterSpacing=0;verticalAlign=top;spacingBottom=0;spacingTop=-4;startSize=4;startArrow=none;startFill=0;fontStyle=0;fontColor=#295200;edgeStyle=entityRelationEdgeStyle;arcSize=10;curved=0;segment=15;" parent="1" source="IwurHtCtulRV3gGwHplq-27" target="IwurHtCtulRV3gGwHplq-30" edge="1">
          <mxGeometry relative="1" as="geometry">
            <mxPoint x="320" y="360" as="sourcePoint" />
            <mxPoint x="380" y="360" as="targetPoint" />
          </mxGeometry>
        </mxCell>
        <mxCell id="IwurHtCtulRV3gGwHplq-25" value="" style="rounded=1;orthogonalLoop=1;jettySize=auto;html=1;linecap=round;linejoin=round;endArrow=block;endFill=1;fillColor=#f8cecc;strokeColor=#b85450;strokeWidth=1.5;endSize=4;sourcePerimeterSpacing=0;fontFamily=Roboto Condensed;fontSource=https%3A%2F%2Ffonts.googleapis.com%2Fcss%3Ffamily%3DRoboto%2BCondensed;fontSize=9;align=center;spacingLeft=0;targetPerimeterSpacing=0;verticalAlign=top;spacingBottom=0;spacingTop=-4;startSize=4;startArrow=none;startFill=0;fontStyle=0;fontColor=#295200;edgeStyle=entityRelationEdgeStyle;arcSize=10;curved=0;segment=15;" parent="1" target="IwurHtCtulRV3gGwHplq-30" edge="1">
          <mxGeometry relative="1" as="geometry">
            <mxPoint x="320" y="380" as="sourcePoint" />
            <mxPoint x="380" y="360" as="targetPoint" />
          </mxGeometry>
        </mxCell>
        <mxCell id="IwurHtCtulRV3gGwHplq-26" value="" style="rounded=1;orthogonalLoop=1;jettySize=auto;html=1;linecap=round;linejoin=round;endArrow=block;endFill=1;fillColor=#f8cecc;strokeColor=#b85450;strokeWidth=1.5;endSize=4;sourcePerimeterSpacing=0;fontFamily=Roboto Condensed;fontSource=https%3A%2F%2Ffonts.googleapis.com%2Fcss%3Ffamily%3DRoboto%2BCondensed;fontSize=9;align=center;spacingLeft=0;targetPerimeterSpacing=0;verticalAlign=top;spacingBottom=0;spacingTop=-4;startSize=4;startArrow=none;startFill=0;fontStyle=0;fontColor=#295200;edgeStyle=entityRelationEdgeStyle;arcSize=10;curved=0;segment=15;" parent="1" source="IwurHtCtulRV3gGwHplq-31" target="IwurHtCtulRV3gGwHplq-30" edge="1">
          <mxGeometry relative="1" as="geometry">
            <mxPoint x="321.9999999999999" y="359.8599999999999" as="sourcePoint" />
            <mxPoint x="380" y="359.8599999999999" as="targetPoint" />
          </mxGeometry>
        </mxCell>
        <mxCell id="IwurHtCtulRV3gGwHplq-27" value="Resource 1" style="rounded=1;whiteSpace=wrap;html=1;arcSize=10;fontFamily=Roboto Condensed;fontSource=https%3A%2F%2Ffonts.googleapis.com%2Fcss%3Ffamily%3DRoboto%2BCondensed;fontSize=11;fillColor=default;fontColor=#333333;strokeColor=#666666;" parent="1" vertex="1">
          <mxGeometry x="260" y="332" width="60" height="16" as="geometry" />
        </mxCell>
        <mxCell id="IwurHtCtulRV3gGwHplq-29" value="&lt;div style=&quot;line-height: 100%;&quot;&gt;&lt;b&gt;Enter&lt;/b&gt;&lt;div&gt;&lt;font style=&quot;font-size: 9px; line-height: 100%;&quot;&gt;(&lt;font data-font-src=&quot;https://fonts.googleapis.com/css?family=Roboto+Mono&quot; face=&quot;Roboto Mono&quot;&gt;-1&lt;/font&gt;)&lt;/font&gt;&lt;/div&gt;&lt;/div&gt;" style="rounded=1;whiteSpace=wrap;html=1;arcSize=10;fontFamily=Roboto;fontSource=https%3A%2F%2Ffonts.googleapis.com%2Fcss%3Ffamily%3DRoboto;fontSize=11;fillColor=#f5f5f5;fontColor=#333333;strokeColor=#666666;spacingBottom=3;" parent="1" vertex="1">
          <mxGeometry x="170" y="345" width="50" height="30" as="geometry" />
        </mxCell>
        <mxCell id="IwurHtCtulRV3gGwHplq-37" style="edgeStyle=entityRelationEdgeStyle;shape=connector;rounded=1;orthogonalLoop=1;jettySize=auto;html=1;strokeColor=#b85450;strokeWidth=1.5;align=center;verticalAlign=top;spacingLeft=0;fontFamily=Roboto Condensed;fontSource=https%3A%2F%2Ffonts.googleapis.com%2Fcss%3Ffamily%3DRoboto%2BCondensed;fontSize=9;fontColor=#295200;labelBackgroundColor=default;endArrow=block;endFill=1;endSize=4;sourcePerimeterSpacing=0;targetPerimeterSpacing=0;fillColor=#f8cecc;spacingTop=-4;spacingBottom=0;arcSize=10;fontStyle=0;startArrow=none;startFill=0;startSize=4;curved=0;linejoin=round;linecap=round;" parent="1" source="IwurHtCtulRV3gGwHplq-30" edge="1">
          <mxGeometry relative="1" as="geometry">
            <mxPoint x="440" y="359.9999999999999" as="targetPoint" />
          </mxGeometry>
        </mxCell>
        <mxCell id="IwurHtCtulRV3gGwHplq-30" value="&lt;div style=&quot;line-height: 100%;&quot;&gt;&lt;b&gt;Leave&lt;/b&gt;&lt;div&gt;&lt;font style=&quot;font-size: 9px; line-height: 100%;&quot;&gt;(&lt;font data-font-src=&quot;https://fonts.googleapis.com/css?family=Roboto+Mono&quot; face=&quot;Roboto Mono&quot;&gt;-1&lt;/font&gt;)&lt;/font&gt;&lt;/div&gt;&lt;/div&gt;" style="rounded=1;whiteSpace=wrap;html=1;arcSize=10;fontFamily=Roboto;fontSource=https%3A%2F%2Ffonts.googleapis.com%2Fcss%3Ffamily%3DRoboto;fontSize=11;fillColor=#f5f5f5;fontColor=#333333;strokeColor=#666666;spacingBottom=3;" parent="1" vertex="1">
          <mxGeometry x="360" y="345" width="50" height="30" as="geometry" />
        </mxCell>
        <mxCell id="IwurHtCtulRV3gGwHplq-31" value="Resource 2" style="rounded=1;whiteSpace=wrap;html=1;arcSize=10;fontFamily=Roboto Condensed;fontSource=https%3A%2F%2Ffonts.googleapis.com%2Fcss%3Ffamily%3DRoboto%2BCondensed;fontSize=11;fillColor=default;fontColor=#333333;strokeColor=#666666;" parent="1" vertex="1">
          <mxGeometry x="260" y="352" width="60" height="16" as="geometry" />
        </mxCell>
        <mxCell id="IwurHtCtulRV3gGwHplq-32" value="Resource 3" style="rounded=1;whiteSpace=wrap;html=1;arcSize=10;fontFamily=Roboto Condensed;fontSource=https%3A%2F%2Ffonts.googleapis.com%2Fcss%3Ffamily%3DRoboto%2BCondensed;fontSize=11;fillColor=default;fontColor=#333333;strokeColor=#666666;" parent="1" vertex="1">
          <mxGeometry x="260" y="372" width="60" height="16" as="geometry" />
        </mxCell>
        <mxCell id="IwurHtCtulRV3gGwHplq-35" value="" style="rounded=1;orthogonalLoop=1;jettySize=auto;html=1;linecap=round;linejoin=round;endArrow=block;endFill=1;fillColor=#f8cecc;strokeColor=#b85450;strokeWidth=1.5;endSize=4;sourcePerimeterSpacing=0;fontFamily=Roboto Condensed;fontSource=https%3A%2F%2Ffonts.googleapis.com%2Fcss%3Ffamily%3DRoboto%2BCondensed;fontSize=9;align=center;spacingLeft=0;targetPerimeterSpacing=0;verticalAlign=top;spacingBottom=0;spacingTop=-4;startSize=4;startArrow=none;startFill=0;fontStyle=0;fontColor=#295200;edgeStyle=entityRelationEdgeStyle;arcSize=10;curved=0;" parent="1" target="IwurHtCtulRV3gGwHplq-29" edge="1">
          <mxGeometry relative="1" as="geometry">
            <mxPoint x="140" y="360" as="sourcePoint" />
            <mxPoint x="170" y="360" as="targetPoint" />
          </mxGeometry>
        </mxCell>
        <mxCell id="xNLhfsvesRfzitC4FMdv-3" style="rounded=1;orthogonalLoop=1;jettySize=auto;html=1;linecap=round;linejoin=round;arcSize=10;fillColor=#d5e8d4;strokeColor=#82b366;endArrow=open;endFill=0;strokeWidth=0.5;dashed=1;targetPerimeterSpacing=3;" edge="1" parent="1" source="xNLhfsvesRfzitC4FMdv-1" target="IwurHtCtulRV3gGwHplq-33">
          <mxGeometry relative="1" as="geometry">
            <Array as="points">
              <mxPoint x="230" y="400" />
            </Array>
          </mxGeometry>
        </mxCell>
        <mxCell id="xNLhfsvesRfzitC4FMdv-1" value="\(n_{max}=3\)" style="text;html=1;align=center;verticalAlign=middle;whiteSpace=wrap;rounded=0;" vertex="1" parent="1">
          <mxGeometry x="260" y="390" width="60" height="20" as="geometry" />
        </mxCell>
        <mxCell id="xNLhfsvesRfzitC4FMdv-5" value="&lt;div style=&quot;line-height: 100%;&quot;&gt;else wait&lt;/div&gt;" style="rounded=1;whiteSpace=wrap;html=1;arcSize=10;fontFamily=Roboto Condensed;fontSource=https%3A%2F%2Ffonts.googleapis.com%2Fcss%3Ffamily%3DRoboto%2BCondensed;fontSize=10;fillColor=default;fontColor=#333333;strokeColor=#666666;verticalAlign=bottom;spacingBottom=0;" vertex="1" parent="1">
          <mxGeometry x="170" y="475" width="50" height="25" as="geometry" />
        </mxCell>
        <mxCell id="xNLhfsvesRfzitC4FMdv-8" value="" style="rounded=1;orthogonalLoop=1;jettySize=auto;html=1;linecap=round;linejoin=round;endArrow=block;endFill=1;fillColor=#f8cecc;strokeColor=#b85450;strokeWidth=1.5;endSize=4;sourcePerimeterSpacing=0;fontFamily=Roboto Condensed;fontSource=https%3A%2F%2Ffonts.googleapis.com%2Fcss%3Ffamily%3DRoboto%2BCondensed;fontSize=9;align=center;spacingLeft=0;targetPerimeterSpacing=0;verticalAlign=top;spacingBottom=0;spacingTop=-4;startSize=4;startArrow=none;startFill=0;fontStyle=0;fontColor=#295200;edgeStyle=entityRelationEdgeStyle;arcSize=10;curved=0;segment=15;" edge="1" source="xNLhfsvesRfzitC4FMdv-13" target="xNLhfsvesRfzitC4FMdv-16" parent="1">
          <mxGeometry relative="1" as="geometry">
            <mxPoint x="200" y="470" as="sourcePoint" />
            <mxPoint x="260" y="470" as="targetPoint" />
          </mxGeometry>
        </mxCell>
        <mxCell id="xNLhfsvesRfzitC4FMdv-11" value="" style="rounded=1;orthogonalLoop=1;jettySize=auto;html=1;linecap=round;linejoin=round;endArrow=block;endFill=1;fillColor=#f8cecc;strokeColor=#b85450;strokeWidth=1.5;endSize=4;sourcePerimeterSpacing=0;fontFamily=Roboto Condensed;fontSource=https%3A%2F%2Ffonts.googleapis.com%2Fcss%3Ffamily%3DRoboto%2BCondensed;fontSize=9;align=center;spacingLeft=0;targetPerimeterSpacing=0;verticalAlign=top;spacingBottom=0;spacingTop=-4;startSize=4;startArrow=none;startFill=0;fontStyle=0;fontColor=#295200;edgeStyle=entityRelationEdgeStyle;arcSize=10;curved=0;segment=15;" edge="1" source="xNLhfsvesRfzitC4FMdv-16" target="xNLhfsvesRfzitC4FMdv-15" parent="1">
          <mxGeometry relative="1" as="geometry">
            <mxPoint x="321.9999999999999" y="469.8599999999999" as="sourcePoint" />
            <mxPoint x="380" y="469.8599999999999" as="targetPoint" />
          </mxGeometry>
        </mxCell>
        <mxCell id="xNLhfsvesRfzitC4FMdv-13" value="&lt;div style=&quot;line-height: 100%;&quot;&gt;&lt;b&gt;Take&lt;/b&gt;&lt;/div&gt;" style="rounded=1;whiteSpace=wrap;html=1;arcSize=10;fontFamily=Roboto;fontSource=https%3A%2F%2Ffonts.googleapis.com%2Fcss%3Ffamily%3DRoboto;fontSize=11;fillColor=#f5f5f5;fontColor=#333333;strokeColor=#666666;spacingBottom=0;" vertex="1" parent="1">
          <mxGeometry x="170" y="455" width="50" height="30" as="geometry" />
        </mxCell>
        <mxCell id="xNLhfsvesRfzitC4FMdv-14" style="edgeStyle=entityRelationEdgeStyle;shape=connector;rounded=1;orthogonalLoop=1;jettySize=auto;html=1;strokeColor=#b85450;strokeWidth=1.5;align=center;verticalAlign=top;spacingLeft=0;fontFamily=Roboto Condensed;fontSource=https%3A%2F%2Ffonts.googleapis.com%2Fcss%3Ffamily%3DRoboto%2BCondensed;fontSize=9;fontColor=#295200;labelBackgroundColor=default;endArrow=block;endFill=1;endSize=4;sourcePerimeterSpacing=0;targetPerimeterSpacing=0;fillColor=#f8cecc;spacingTop=-4;spacingBottom=0;arcSize=10;fontStyle=0;startArrow=none;startFill=0;startSize=4;curved=0;linejoin=round;linecap=round;" edge="1" source="xNLhfsvesRfzitC4FMdv-15" parent="1">
          <mxGeometry relative="1" as="geometry">
            <mxPoint x="440" y="469.9999999999999" as="targetPoint" />
          </mxGeometry>
        </mxCell>
        <mxCell id="xNLhfsvesRfzitC4FMdv-15" value="&lt;div style=&quot;line-height: 100%;&quot;&gt;&lt;b&gt;Release&lt;/b&gt;&lt;/div&gt;" style="rounded=1;whiteSpace=wrap;html=1;arcSize=10;fontFamily=Roboto;fontSource=https%3A%2F%2Ffonts.googleapis.com%2Fcss%3Ffamily%3DRoboto;fontSize=11;fillColor=#f5f5f5;fontColor=#333333;strokeColor=#666666;spacingBottom=0;" vertex="1" parent="1">
          <mxGeometry x="360" y="455" width="50" height="30" as="geometry" />
        </mxCell>
        <mxCell id="xNLhfsvesRfzitC4FMdv-16" value="Resource" style="rounded=1;whiteSpace=wrap;html=1;arcSize=10;fontFamily=Roboto Condensed;fontSource=https%3A%2F%2Ffonts.googleapis.com%2Fcss%3Ffamily%3DRoboto%2BCondensed;fontSize=11;fillColor=default;fontColor=#333333;strokeColor=#666666;" vertex="1" parent="1">
          <mxGeometry x="260" y="462" width="60" height="16" as="geometry" />
        </mxCell>
        <mxCell id="xNLhfsvesRfzitC4FMdv-18" value="" style="rounded=1;orthogonalLoop=1;jettySize=auto;html=1;linecap=round;linejoin=round;endArrow=block;endFill=1;fillColor=#f8cecc;strokeColor=#b85450;strokeWidth=1.5;endSize=4;sourcePerimeterSpacing=0;fontFamily=Roboto Condensed;fontSource=https%3A%2F%2Ffonts.googleapis.com%2Fcss%3Ffamily%3DRoboto%2BCondensed;fontSize=9;align=center;spacingLeft=0;targetPerimeterSpacing=0;verticalAlign=top;spacingBottom=0;spacingTop=-4;startSize=4;startArrow=none;startFill=0;fontStyle=0;fontColor=#295200;edgeStyle=entityRelationEdgeStyle;arcSize=10;curved=0;" edge="1" target="xNLhfsvesRfzitC4FMdv-13" parent="1">
          <mxGeometry relative="1" as="geometry">
            <mxPoint x="140" y="470" as="sourcePoint" />
            <mxPoint x="170" y="470" as="targetPoint" />
          </mxGeometry>
        </mxCell>
        <mxCell id="xNLhfsvesRfzitC4FMdv-22" value="\(n_{max}=1\)" style="text;html=1;align=center;verticalAlign=middle;whiteSpace=wrap;rounded=0;" vertex="1" parent="1">
          <mxGeometry x="260" y="480" width="60" height="20" as="geometry" />
        </mxCell>
        <mxCell id="xNLhfsvesRfzitC4FMdv-23" style="rounded=1;orthogonalLoop=1;jettySize=auto;html=1;linecap=round;linejoin=round;arcSize=10;fillColor=#d5e8d4;strokeColor=#82b366;endArrow=open;endFill=0;strokeWidth=0.5;dashed=1;targetPerimeterSpacing=3;" edge="1" source="xNLhfsvesRfzitC4FMdv-22" parent="1">
          <mxGeometry relative="1" as="geometry">
            <mxPoint x="222" y="490" as="targetPoint" />
            <Array as="points">
              <mxPoint x="230" y="490" />
            </Array>
          </mxGeometry>
        </mxCell>
        <mxCell id="xNLhfsvesRfzitC4FMdv-24" value="scheduler" style="rounded=0;orthogonalLoop=1;jettySize=auto;html=1;linecap=round;linejoin=round;endArrow=block;endFill=1;fillColor=#f8cecc;strokeColor=#b85450;strokeWidth=1.5;endSize=4;sourcePerimeterSpacing=2;fontFamily=Roboto Condensed;fontSource=https%3A%2F%2Ffonts.googleapis.com%2Fcss%3Ffamily%3DRoboto%2BCondensed;fontSize=9;align=center;spacingLeft=0;targetPerimeterSpacing=1;verticalAlign=top;spacingBottom=0;spacingTop=-4;startSize=4;startArrow=block;startFill=1;fontStyle=0;fontColor=#295200;" edge="1" parent="1" source="IwurHtCtulRV3gGwHplq-2" target="IwurHtCtulRV3gGwHplq-5">
          <mxGeometry relative="1" as="geometry">
            <mxPoint x="250" y="280" as="sourcePoint" />
            <mxPoint x="417" y="280" as="targetPoint" />
          </mxGeometry>
        </mxCell>
      </root>
    </mxGraphModel>
  </diagram>
</mxfile>
